<svg id="b2757784-7f0f-40b7-8ac2-02a73d18cf5c" data-name="Layer 1" xmlns="http://www.w3.org/2000/svg" width="1200.98291" height="685.5051" viewBox="0 0 1200.98291 685.5051"><title>everywhere_together</title><path d="M900.1927,107.24856H659.57721a51.15011,51.15011,0,0,0-49.89774,39.90061L488.10122,686.41647a41.34031,41.34031,0,0,0,38.29374,50.3823L773.74935,748.9859a54.6149,54.6149,0,0,0,56.43046-44.82745l68.9666-381.268,5.13081,1.466,13.19613-72.26457-5.28146-1.32036,19.251-106.42558A31.49278,31.49278,0,0,0,900.1927,107.24856Z" transform="translate(0.49146 -107.24745)" fill="#3f3d56"/><path d="M691.25386,118.87373H663.16678a35.34865,35.34865,0,0,0-34.53619,27.81348L511.93222,681.55475a21.90325,21.90325,0,0,0,19.96738,26.52542l246.55417,16.15894a28.36685,28.36685,0,0,0,29.77274-23.27749L907.806,148.12392a24.84574,24.84574,0,0,0-24.45224-29.25019h-26.645a11.72583,11.72583,0,0,0-11.32265,8.67742v0a10.35184,10.35184,0,0,1-9.9959,7.66063H708.897a17.69522,17.69522,0,0,1-17.6431-16.33806Z" transform="translate(0.49146 -107.24745)" fill="#6c63ff"/><path d="M1047.6348,582.90741c-38.47477,60.79561-26.66467,137.293-26.66467,137.293s74.19005-22.07179,112.66483-82.8674,26.66467-137.293,26.66467-137.293S1086.10958,522.11179,1047.6348,582.90741Z" transform="translate(0.49146 -107.24745)" fill="#d0cde1"/><path d="M1077.29671,593.15992c-2.12767,71.91584-54.71778,128.71027-54.71778,128.71027s-49.14047-59.80418-47.01281-131.72S1030.2839,461.4399,1030.2839,461.4399,1079.42438,521.24408,1077.29671,593.15992Z" transform="translate(0.49146 -107.24745)" fill="#6c63ff"/><ellipse cx="115.95271" cy="380.23332" rx="21.99972" ry="14.9746" fill="#6c63ff"/><path d="M115.46125,487.48077S219.95994,669.04781,217.21,695.25337" transform="translate(0.49146 -107.24745)" fill="#6c63ff"/><path d="M184.21039,500.00582V606.21933C162.321,575.88909,118.661,544.65824,36.8455,519.306L184.21039,721.72235V723.26s.27836-.15009.7966-.44335l.251.34471s.21042-.28112.5865-.82464C203.01369,712.39141,347.00862,622.719,184.21039,500.00582Z" transform="translate(0.49146 -107.24745)" fill="#3f3d56"/><ellipse cx="917.95271" cy="380.23332" rx="21.99972" ry="14.9746" fill="#6c63ff"/><path d="M917.46125,487.48077s104.49869,181.567,101.74872,207.7726" transform="translate(0.49146 -107.24745)" fill="#6c63ff"/><path d="M986.21039,500.00582V606.21933C964.321,575.88909,920.661,544.65824,838.8455,519.306L986.21039,721.72235V723.26s.27836-.15009.7966-.44335l.251.34471s.21042-.28112.5865-.82464C1005.01369,712.39141,1149.00862,622.719,986.21039,500.00582Z" transform="translate(0.49146 -107.24745)" fill="#3f3d56"/><path d="M44.94114,692.25875c11.54993,21.41985,36.063,30.61492,36.063,30.61492s5.787-25.53335-5.763-46.95319-36.063-30.61492-36.063-30.61492S33.39121,670.83891,44.94114,692.25875Z" transform="translate(0.49146 -107.24745)" fill="#d0cde1"/><path d="M52.87984,685.21177C73.73222,697.75725,81.76312,722.676,81.76312,722.676s-25.77747,4.57854-46.62984-7.96694S6.25,677.24483,6.25,677.24483,32.02747,672.6663,52.87984,685.21177Z" transform="translate(0.49146 -107.24745)" fill="#6c63ff"/><path d="M734.94114,692.25875c11.54993,21.41985,36.063,30.61492,36.063,30.61492s5.787-25.53335-5.763-46.95319-36.063-30.61492-36.063-30.61492S723.39121,670.83891,734.94114,692.25875Z" transform="translate(0.49146 -107.24745)" fill="#3f3d56"/><path d="M742.87984,685.21177c20.85238,12.54548,28.88328,37.46426,28.88328,37.46426s-25.77747,4.57854-46.62984-7.96694S696.25,677.24483,696.25,677.24483,722.02747,672.6663,742.87984,685.21177Z" transform="translate(0.49146 -107.24745)" fill="#3f3d56"/><path d="M452.94114,676.25875c11.54993,21.41985,36.063,30.61492,36.063,30.61492s5.787-25.53335-5.763-46.95319-36.063-30.61492-36.063-30.61492S441.39121,654.83891,452.94114,676.25875Z" transform="translate(0.49146 -107.24745)" fill="#3f3d56"/><path d="M460.87984,669.21177c20.85238,12.54548,28.88328,37.46426,28.88328,37.46426s-25.77747,4.57854-46.62984-7.96694S414.25,661.24483,414.25,661.24483,440.02747,656.6663,460.87984,669.21177Z" transform="translate(0.49146 -107.24745)" fill="#6c63ff"/><path d="M327.94114,676.25875c11.54993,21.41985,36.063,30.61492,36.063,30.61492s5.787-25.53335-5.763-46.95319-36.063-30.61492-36.063-30.61492S316.39121,654.83891,327.94114,676.25875Z" transform="translate(0.49146 -107.24745)" fill="#d0cde1"/><path d="M335.87984,669.21177c20.85238,12.54548,28.88328,37.46426,28.88328,37.46426s-25.77747,4.57854-46.62984-7.96694S289.25,661.24483,289.25,661.24483,315.02747,656.6663,335.87984,669.21177Z" transform="translate(0.49146 -107.24745)" fill="#6c63ff"/><path d="M1154.94114,692.25875c-11.54993,21.41985-36.063,30.61492-36.063,30.61492s-5.787-25.53335,5.763-46.95319,36.063-30.61492,36.063-30.61492S1166.49107,670.83891,1154.94114,692.25875Z" transform="translate(0.49146 -107.24745)" fill="#3f3d56"/><path d="M1147.00244,685.21177c-20.85237,12.54548-28.88328,37.46426-28.88328,37.46426s25.77747,4.57854,46.62984-7.96694,28.88328-37.46426,28.88328-37.46426S1167.85481,672.6663,1147.00244,685.21177Z" transform="translate(0.49146 -107.24745)" fill="#6c63ff"/><path d="M1200.49146,738.47675s-28.76294-8.52277-85.97352-16.7146l1.02991-17.50348c8.61072-98.57159-58.87256-245.42126-58.87256-245.42126a658.93611,658.93611,0,0,1,38.08643,227.67053c-8.94873-15.16968-26.07471-31.44116-58.72315-41.15131,0,0,42.75074,35.74134,55.33533,73.32111-43.13977-5.33319-99.03082-10.01141-167.56805-11.38226L937.92963,673.664l-27.544,28.24334s-12.53461-83.53705-37.18774-86.51013l19.07721,81.814S870.739,681.07044,865.8371,682.773l12.44207,24.12336q-11.475.0249-23.35589.17718c5.90478-98.44952-59.248-240.23608-59.248-240.23608a658.9345,658.9345,0,0,1,38.08637,227.67053c-8.94873-15.16968-26.07465-31.44116-58.72315-41.15131,0,0,29.39374,24.57544,46.60968,54.39594-43.29022,1.199-90.26776,3.72247-140.91125,7.98505q-8.81882-.25764-17.93109-.44214l6.61-15.73981,2.55719-4.95807a2.25729,2.25729,0,0,0-.43591-.0932l5.39246-12.84045-17.517,17.96179c-3.936,2.38647-7.8852,5.10272-10.56006,7.00311-.28546-1.68378-.68549-3.95276-1.20062-6.6709l16.96045-72.73614c-10.92615,1.31762-19.46991,18.461-25.59913,37.14209-6.19482-20.10364-15.14672-39.55951-26.81536-40.96674L629.97113,699.619c-.28857,1.43732-.55341,2.796-.793,4.05829-5.46173-3.93658-19.99823-14.01562-24.178-12.93921l-5.11957-5.24951L612.239,714.91633q-8.8916.04009-18.01464.1538-1.5143-.16836-3.02717-.33605l8.92225-21.24549-19.59333,20.09076q-4.78527-.509-9.53393-.99914c-4.077-21.76465-16.014-74.99585-35.60456-77.3584l17.62006,75.56488q-4.37339-.42225-8.70911-.82581c-6.29248-4.09265-13.6538-8.27252-16.27166-7.36328l3.18194,6.16931c-78.45324-6.95068-148.29736-9.738-209.488-9.8706L334.1629,674.773c-4.90185-1.70251-26.438,14.43818-26.438,14.43818l19.07721-81.814c-15.33093,1.84888-25.97393,34.85077-31.832,59.54651-5.507-12.80084-12.37164-22.73169-20.58252-23.72186L285.1355,689.3147,262.07037,665.664l14.12378,33.63153c-68.53723,1.37085-124.42828,6.04907-167.568,11.38226,12.58465-37.57977,55.33539-73.32111,55.33539-73.32111-32.6485,9.71015-49.77442,25.98163-58.72315,41.15131a658.9345,658.9345,0,0,1,38.08637-227.67053S75.84143,597.68708,84.45215,696.25867l1.02991,17.50348C28.27148,721.954-.49146,730.47675-.49146,730.47675l279.57892,3.50458,2.47626,4.80115q-55.1586,7.31991-114.89093,17.38171l772.81867-9.68744s-6.03309-1.785-18.03-4.50232Z" transform="translate(0.49146 -107.24745)" fill="#3f3d56"/><path d="M220.74175,792.75255s184-27,298,0" transform="translate(0.49146 -107.24745)" fill="#3f3d56"/><path d="M924.74175,769.67991s108.97986-27.63867,176.5,0" transform="translate(0.49146 -107.24745)" fill="#3f3d56"/><path d="M757.44824,622.69043q-.71484,0-1.43164-.0459l-17.05273-1.12012L571.85449,610.5752a17.28067,17.28067,0,0,1-13.66943-8.29,17.21659,17.21659,0,0,1-2.15235-12.73145L643.20313,190.0332a27.5495,27.5495,0,0,1,26.7666-21.55664h164.4707a19.56138,19.56138,0,0,1,19.24414,23.02735L779.30469,604.43457a22.24941,22.24941,0,0,1-4.81543,10.30078l-.207.499-.21582.001a22.28154,22.28154,0,0,1-6.457,5.00977l-.1211.05664A22.2361,22.2361,0,0,1,757.44824,622.69043ZM669.96973,170.47656a25.53829,25.53829,0,0,0-24.8125,19.98291l-87.17041,399.52a15.40808,15.40808,0,0,0,10.11963,17.83887,15.42892,15.42892,0,0,0,3.8833.76074l184.15478,12.06934a20.18065,20.18065,0,0,0,10.42285-2.124l.11426-.05273a20.25933,20.25933,0,0,0,5.84277-4.5127l.3252-.38085a20.24012,20.24012,0,0,0,4.4873-9.5l74.37891-412.92872.98438.17725-.98438-.17725a17.56172,17.56172,0,0,0-17.27539-20.67285Z" transform="translate(0.49146 -107.24745)" fill="#3f3d56"/><path d="M579.02977,575.94409s-31.38209,36.59758-24.78628,38.98749,37.39053-23.76084,35.41056-33.006Z" transform="translate(0.49146 -107.24745)" fill="#ffb9b9"/><path d="M763.73837,609.86068s17.03749,45.09926,10.02206,45.09926-27.05956-35.0772-22.04853-43.09485Z" transform="translate(0.49146 -107.24745)" fill="#ffb9b9"/><path d="M774.33855,336.87935c-2.81294-3.97815-6.27328-7.4546-9.24192-11.31795-6.84425-8.90736-9.212-20.77613-18.39669-27.6068-9.08824-6.75893-23.51036-13.41145-34.88319-12.87844-14.98835.70242-26.87832,12.33009-37.21078,23.21059q-11.84388,12.47211-23.68776,24.94415c-5.71221,6.01516-11.63534,12.40107-13.69406,20.43678-1.97875,7.72307-.04786,16.01993,3.57484,23.1219a56.27567,56.27567,0,0,0,15.47723,18.476c7.92934-10.91842,19.03793-25.99441,19.03793-25.99441l2.58617,37.49965c13.43366,4.45209,27.86417,5.32748,42.02085,4.3432l4.19316-15.375,4.40105,14.52354c16.91753-2.24283,33.9133-8.08412,44.3859-21.28576C784.47947,374.38147,785.09436,352.09093,774.33855,336.87935Z" transform="translate(0.49146 -107.24745)" fill="#2f2e41"/><circle cx="710.11072" cy="232.01771" r="31.06838" fill="#ffb9b9"/><path d="M689.57515,354.29824s2.00441,24.05294-11.02426,26.05735-27.05956,0-27.05956,8.01764,10.02206,81.17866,10.02206,81.17866l25.05514-2.00441,35.0772-34.075,19.04191-37.08161s-23.05073-10.02206-13.02868-40.08823Z" transform="translate(0.49146 -107.24745)" fill="#ffb9b9"/><path d="M674.54206,455.521,664.52,428.46146l2.00441-37.08161s22.00528-3.00662,21.5258-21.04632L671.53545,377.349l-38.08382,6.01323v35.0772S620.423,439.48572,635.456,460.532l7.01544,44.09705,72.15881-5.011L737.681,469.55189l29.064-57.12572-30.06617-22.04853,4.00882-6.01323-15.33559-10.00128,2.30691,19.02113-7.01543,12.02647S688.57294,411.424,674.54206,455.521Z" transform="translate(0.49146 -107.24745)" fill="#fff"/><path d="M639.46487,385.36662l-6.01324-2.00442s-12.02647,5.011-12.02647,21.04632-48.10587,174.38379-48.10587,174.38379l22.04853,6.01323,30.06617-73.161L643.47369,450.51Z" transform="translate(0.49146 -107.24745)" fill="#fff"/><path d="M758.72734,412.42617H766.745s5.011-4.00882,4.00882,25.05514,3.00662,182.40143,3.00662,182.40143l-29.064-2.00441L737.681,452.51439Z" transform="translate(0.49146 -107.24745)" fill="#fff"/><path d="M739.03,620.5268l-54.77-3.59009-13.31-.87-30.31-1.99c-.46-1.63-.86-3.03992-1.18-4.22-10.02-37.08,1.01-89.19007,1.01-89.19007s-2.01-5.01,0-8.02c2-3.01,1-2-3.01-6.01s0,0,2-5.01c2.01-5.01989,0,0,0-4.00988a8.81524,8.81524,0,0,0-2-6.02,13.37048,13.37048,0,0,1,2.68-1.64c19.07-9.14,80.28,2.11,80.28,2.11s-.04.05-.11.15c-.48.7-2.3,3.76.33,6.4,3.01,3.00988-2,3.00988-3,6.00988-1.01,3.01,0,0,1,3.01s-2.01,7.01-2.01,7.01C742.43,536.32673,743.79,581.65668,739.03,620.5268Z" transform="translate(0.49146 -107.24745)" fill="#2f2e41"/><path d="M684.26,616.93671l-13.31-.87c2.26-10.2699,3.59-16.23,3.59-16.23Z" transform="translate(0.49146 -107.24745)" fill="#2f2e41"/><path d="M676.04537,316.71553s25.05514,30.06617,75.16543,13.02867l-14.03088-25.05514L704.10713,294.667Z" transform="translate(0.49146 -107.24745)" fill="#2f2e41"/><path d="M444.47643,758.893s14.15906,11.92341,21.61119,11.1782,21.6112-.74521,15.64949,7.45213-30.55376,12.66863-40.98675,13.41385-33.5346,1.49042-32.04418-2.98086,2.98086-25.33726,8.94256-26.82768S444.47643,758.893,444.47643,758.893Z" transform="translate(0.49146 -107.24745)" fill="#575a89"/><path d="M363.21105,747.18642s10.43362,15.29007,17.81186,16.57509,21.01635,5.09036,13.07089,11.38386-32.8344,3.991-43.08382,1.90486-32.70137-7.57707-30.06409-11.48328,9.68074-23.60393,15.82367-23.43727S363.21105,747.18642,363.21105,747.18642Z" transform="translate(0.49146 -107.24745)" fill="#575a89"/><path d="M452.7706,528.5168s9.591,65.684,7.35532,77.60739-3.72607,30.55375-3.72607,30.55375,1.49042,15.64948,0,23.10162-10.433,78.24742-10.433,79.73785,1.49043,5.9617,0,9.68777-4.47128.74521,0,6.70692,1.49043,7.45214.74521,7.45214-29.80854,2.98085-31.299,0,.74522-3.72607,0-7.45214-1.49042-4.47128-2.98085-5.21649-4.47128.74521-2.23564-2.98086,7.45213-8.19734,5.96171-10.433.74521-18.63033.74521-18.63033,1.49043-36.51547,2.23564-58.87187-6.70692-45.458-6.70692-45.458a85.26363,85.26363,0,0,1-19.37555,49.92931c-19.37555,23.10162-29.06333,66.324-29.06333,66.324s-4.47128,6.70692-2.23564,12.66863,8.94256,2.23564,2.23564,5.96171-29.80854-1.49043-32.04418-3.72607,2.98085-5.21649,1.49043-11.1782-7.45214-4.47128-2.23564-7.45213,6.70692-2.23565,6.70692-5.2165,13.41384-67.81443,34.27982-86.44477l1.49043-67.81443s-18.63034-47.69366.74521-52.16494S452.7706,528.5168,452.7706,528.5168Z" transform="translate(0.49146 -107.24745)" fill="#2f2e41"/><path d="M439.25994,352.00638s-12.66863,31.299-9.68778,35.77025-36.51546-14.90427-36.51546-14.90427,12.66863-31.299,12.66863-35.025S439.25994,352.00638,439.25994,352.00638Z" transform="translate(0.49146 -107.24745)" fill="#ffb9b9"/><circle cx="430.43622" cy="225.01077" r="27.5729" fill="#ffb9b9"/><path d="M393.0567,360.20373s19.37555-2.23564,29.06333,9.68777,11.1782,14.90427,11.1782,14.90427,23.10162,37.26068,18.63034,55.891a53.90649,53.90649,0,0,0-2.98086,5.21649c-1.49042,2.98086-1.49042,44.71281,0,51.41973s2.98086,8.94257,1.49043,18.63034,11.92342,25.33726-3.72607,28.31811-27.5729.74522-32.78939-5.9617-.74522-11.17821-17.13991-11.17821-26.82769-11.1782-26.82769-11.1782,8.19735-8.94256,5.21649-10.433,0-5.21649,1.49043-8.94256,1.49043-6.70692-.74521-6.70692-.74522-1.49043.74521-5.2165-26.08247-67.81443-9.68777-86.44476,24.592-29.06333,24.592-29.06333S388.58542,357.96809,393.0567,360.20373Z" transform="translate(0.49146 -107.24745)" fill="#2f2e41"/><path d="M435.53387,430.999v32.7894L459.3807,542.781s15.64949,40.98674,0,40.98674-14.811-39.12023-14.811-39.12023L410.94182,485.3996s-13.41384-46.94845-11.92341-50.67452S435.53387,430.999,435.53387,430.999Z" transform="translate(0.49146 -107.24745)" fill="#ffb9b9"/><path d="M422.86524,382.56013s22.3564,8.94256,16.3947,32.7894,0,23.10162,0,23.10162-30.55376-2.98086-40.24153,3.72606l-2.23564-8.94256S387.8402,381.81492,422.86524,382.56013Z" transform="translate(0.49146 -107.24745)" fill="#2f2e41"/><path d="M439.35992,311.55863a11.00137,11.00137,0,0,0,10.33394-1.60811c2.809-2.3144,4.0005-6.58471,2.34813-9.82763-1.42688-2.80037-4.47892-4.33669-7.40558-5.48244a68.82993,68.82993,0,0,0-20.1708-4.55454c-3.29659-.23446-6.75883-.19731-9.70069,1.30864-1.45563.74513-2.71991,1.82055-4.16154,2.59242-2.6508,1.41927-5.73546,1.73482-8.60017,2.6483A21.52613,21.52613,0,0,0,388.848,308.7277a25.93875,25.93875,0,0,0-1.62042,6.00275,33.43529,33.43529,0,0,0,1.73891,16.73774c3.17662,8.4578,9.83912,15.852,10.21514,24.87887,4.07791-2.95853,5.59006-8.29853,8.85792-12.133a16.50328,16.50328,0,0,1,9.4191-5.4634,5.24614,5.24614,0,0,0,2.80764-1.02373,4.52018,4.52018,0,0,0,1.02536-2.39214l2.79027-13.17414c.56785-2.68112,1.28546-5.60425,3.48916-7.23353a10.558,10.558,0,0,1,4.54771-1.60216,71.33929,71.33929,0,0,1,11.65011-1.06224" transform="translate(0.49146 -107.24745)" fill="#2f2e41"/></svg>